PathFileType	4	(X/Y/Z)	CPRIT_Patient3_R_KneeIso_Processed.TRC
DataRate	CameraRate	NumFrames	NumMarkers	Units	OrigDataRate	OrigDataStartFrame	OrigNumFrames
150.195058517555	150.195058517555	5	39	m	150.195058517555	482	       771
Frame#	Time	R.Heel			R.Midfoot.Superior			R.Midfoot.Lateral			R.Toe			L.Heel			L.Midfoot.Superior			L.Midfoot.Lateral			L.Toe			R.Shank.Superior			R.Shank.Inferior			R.Shank.Lateral			R.Shank.Posterior			L.Shank.Superior			L.Shank.Inferior			L.Shank.Posterior			L.Shank.Lateral			R.Patella			L.Patella			R.Thigh.Superior			R.Thigh.Lateral			R.Thigh.Inferior			L.Thigh.Superior			L.Thigh.Inferior			L.Thigh.Lateral			L.ASIS			R.ASIS			Sacral			R.Shoulder			L.Shoulder			C7			J.Notch			Sternum			Thoracic			L.Elbow			L.Wrist			R.Elbow			R.Wrist			R.PSIS			L.PSIS			
		X1	Y1	Z1	X2	Y2	Z2	X3	Y3	Z3	X4	Y4	Z4	X5	Y5	Z5	X6	Y6	Z6	X7	Y7	Z7	X8	Y8	Z8	X9	Y9	Z9	X10	Y10	Z10	X11	Y11	Z11	X12	Y12	Z12	X13	Y13	Z13	X14	Y14	Z14	X15	Y15	Z15	X16	Y16	Z16	X17	Y17	Z17	X18	Y18	Z18	X19	Y19	Z19	X20	Y20	Z20	X21	Y21	Z21	X22	Y22	Z22	X23	Y23	Z23	X24	Y24	Z24	X25	Y25	Z25	X26	Y26	Z26	X27	Y27	Z27	X28	Y28	Z28	X29	Y29	Z29	X30	Y30	Z30	X31	Y31	Z31	X32	Y32	Z32	X33	Y33	Z33	X34	Y34	Z34	X35	Y35	Z35	X36	Y36	Z36	X37	Y37	Z37	X38	Y38	Z38	X39	Y39	Z39	

482	3.202502164502	0.672799063533	0.121130182849	0.075840813002	0.848985821864	0.129987058733	0.091798199132	0.744039038450	0.093315001529	0.133371094905	0.951798110567	0.059468132275	0.103750133343	0.653626734794	0.042638867431	-0.090810199329	0.818233298229	0.096124100629	-0.136310617845	0.721091998854	0.032727831657	-0.161257871462	0.932213860751	0.056820518670	-0.163485023699	0.901664228993	0.386903303881	0.091867281635	0.849879857474	0.276806164871	0.094613106976	0.806918863622	0.352898073025	0.149460023655	0.764862764886	0.427096134201	0.089246638115	0.770026741392	0.364630179200	-0.160827894363	0.763831948542	0.236963469815	-0.144170629034	0.632490271697	0.340572977700	-0.145757201278	0.699461555480	0.276821831117	-0.198864973977	0.963807939749	0.504836353125	0.073360661029	0.796200885216	0.466150183450	-0.158677639796	0.869867033898	0.825271045875	0.085079159317	0.823184962914	0.731657705068	0.135554983904	0.931944255239	0.680468986597	0.058318541685	0.849330494994	0.775313970853	-0.182587364113	0.834537273073	0.610842525457	-0.166868869266	0.748396270347	0.703498751467	-0.233266904342	0.839696417759	0.935450371363	-0.171611126927	0.811458290733	0.955832690508	0.066564448031	0.637894506828	0.990504063540	-0.065112921319	0.758437714848	1.450841327041	0.081318880024	0.774918104928	1.463290633448	-0.232470539655	0.709290327296	1.479190044774	-0.077265067570	0.826724858423	1.376476442789	-0.074183399455	0.879508996454	1.196350996768	-0.074105671815	0.624072177731	1.323296513862	-0.085169192892	0.753714970135	1.185439495631	-0.413282147288	0.903441559765	0.987158447277	-0.451265273474	0.670334394726	1.180940609316	0.256818029501	0.736627137252	0.981718560574	0.383977131400	0.637297752957	0.992355588380	-0.027593435357	0.641533185189	0.990372195097	-0.102902702884	
483	3.209160173160	0.667814878259	0.124129599854	0.075300357907	0.844052726161	0.130688821063	0.091712090049	0.738549260209	0.095410509434	0.133037397835	0.945921322335	0.058868954466	0.103970431136	0.653623526046	0.042629863174	-0.090801201859	0.818214602747	0.096105595956	-0.136329705494	0.721091908475	0.032727371482	-0.161258567051	0.932216821031	0.056822061109	-0.163479377688	0.900113820085	0.386873608203	0.091873101956	0.846881669079	0.277449880832	0.094465753145	0.804792241926	0.354066925726	0.149190897548	0.763742676067	0.428718705146	0.088861419032	0.770046536735	0.364621226729	-0.160877788020	0.763848918096	0.236960334129	-0.144166627686	0.632510714374	0.340581302788	-0.145769372474	0.699480063516	0.276825565333	-0.198871640619	0.963746926307	0.504363662810	0.073485683782	0.796232054006	0.466144268012	-0.158675142337	0.869891520150	0.825267877632	0.085178072296	0.823240433910	0.731588879509	0.135504756506	0.932100680507	0.680440751798	0.058377458227	0.849376235346	0.775295496763	-0.182606080162	0.834583241687	0.610824984379	-0.166872389018	0.748402883711	0.703469149524	-0.233257784915	0.839775674942	0.935442325926	-0.171583401649	0.811508032805	0.955784129551	0.066585949172	0.637961239696	0.990503654092	-0.065102930194	0.758515914884	1.450841458886	0.081327718604	0.774955551003	1.463284679838	-0.232454293373	0.709334439515	1.479179702586	-0.077245376676	0.826798840580	1.376489845506	-0.074181737218	0.879604331997	1.196372288564	-0.074091618964	0.624134020808	1.323292049897	-0.085150513218	0.753722480553	1.185443764411	-0.413280907146	0.903443257593	0.987158041770	-0.451264880660	0.670370282008	1.180948944559	0.256812533073	0.736626979215	0.981718853884	0.383976068460	0.637362290731	0.992351436279	-0.027582256938	0.641605103583	0.990372131976	-0.102892690535	
484	3.215818181818	0.662825277617	0.127255759328	0.074719253285	0.839084741344	0.131490827461	0.091610273993	0.733029427004	0.097630509758	0.132673842033	0.939971754523	0.058362501030	0.104186172238	0.653620545918	0.042619872036	-0.090791572437	0.818192598940	0.096085888522	-0.136353301115	0.721091852764	0.032726873466	-0.161259271364	0.932219639079	0.056822959280	-0.163473731764	0.898563738350	0.386879742333	0.091880509019	0.843873551327	0.278158545288	0.094306842062	0.802670119436	0.355296092537	0.148909055581	0.762654781955	0.430390201233	0.088455105880	0.770066887951	0.364611607995	-0.160933186909	0.763864899972	0.236957430736	-0.144163046813	0.632530776520	0.340589627357	-0.145781499849	0.699499001778	0.276829399219	-0.198878081569	0.963702349667	0.503913427851	0.073625033877	0.796263132656	0.466138674141	-0.158671094813	0.869912512453	0.825277933574	0.085298008032	0.823293583937	0.731526825395	0.135463395968	0.932267129904	0.680429981283	0.058455872978	0.849420535341	0.775276624628	-0.182621701967	0.834628211170	0.610806900814	-0.166873621995	0.748407529852	0.703438251491	-0.233247078850	0.839853804776	0.935434844819	-0.171553149975	0.811552103213	0.955737055183	0.066610447427	0.638024669145	0.990503456691	-0.065094426132	0.758594891888	1.450841948971	0.081337189800	0.774996292709	1.463279622247	-0.232436944819	0.709380267949	1.479170599954	-0.077226500076	0.826873392561	1.376503040491	-0.074178794109	0.879697726206	1.196392543127	-0.074075262899	0.624196093441	1.323289855157	-0.085132352841	0.753733231494	1.185449571253	-0.413279436555	0.903445760148	0.987157692776	-0.451264564074	0.670405643878	1.180957489295	0.256807331303	0.736626566489	0.981719169583	0.383974956892	0.637422724982	0.992347421711	-0.027572625770	0.641674448924	0.990372107337	-0.102884172662	
485	3.222476190476	0.657832838396	0.130513415207	0.074096120506	0.834082975843	0.132397059931	0.091490700427	0.727481429440	0.099979832033	0.132278321458	0.933949083336	0.057952586963	0.104394622561	0.653617863963	0.042608967694	-0.090781429024	0.818167599597	0.096065136385	-0.136381127115	0.721091840321	0.032726343345	-0.161259974095	0.932222254543	0.056823195089	-0.163468160595	0.897015517660	0.386923495928	0.091889307269	0.840856945365	0.278935092425	0.094135785271	0.800554537932	0.356588317365	0.148614399058	0.761601707692	0.432113131961	0.088028665896	0.770088054453	0.364601354047	-0.160993766063	0.763880188207	0.236954762789	-0.144159689930	0.632550513171	0.340597951439	-0.145793531944	0.699518433205	0.276833328781	-0.198884237383	0.963676031295	0.503486728401	0.073779925935	0.796294167445	0.466133462116	-0.158665425127	0.869930333812	0.825301381212	0.085437234911	0.823345977470	0.731472493229	0.135431244950	0.932444218761	0.680437469407	0.058553117969	0.849463516532	0.775257504313	-0.182634185169	0.834672337469	0.610788428702	-0.166872417242	0.748410950407	0.703406413541	-0.233234769455	0.839930584799	0.935428047095	-0.171520427852	0.811590624005	0.955691702745	0.066637880141	0.638084676644	0.990503355666	-0.065087239841	0.758674306087	1.450842774425	0.081347328233	0.775040345616	1.463275513996	-0.232418594715	0.709427746823	1.479162799833	-0.077208561227	0.826948246691	1.376515980205	-0.074174470818	0.879788887491	1.196411710592	-0.074056548009	0.624258174895	1.323289944216	-0.085114733710	0.753747245388	1.185456926532	-0.413277776995	0.903449054806	0.987157401051	-0.451264334572	0.670440223210	1.180966235019	0.256802547091	0.736625883054	0.981719505574	0.383973814319	0.637478990963	0.992343461752	-0.027564391931	0.641741058965	0.990372060729	-0.102876999499	
486	3.229134199134	0.652840439509	0.133907090114	0.073429845028	0.829048697809	0.133411294511	0.091351457340	0.721907497882	0.102463081368	0.131848904827	0.927853312113	0.057643027195	0.104593068930	0.653615528977	0.042597268718	-0.090770911349	0.818139965967	0.096043527855	-0.136412825936	0.721091878248	0.032725787912	-0.161260664635	0.932224611022	0.056822757535	-0.163462738024	0.895470642226	0.387006573637	0.091899278347	0.837833354114	0.279782343047	0.093952087404	0.798447556368	0.357946202739	0.148306867928	0.760586021869	0.433889733849	0.087583084742	0.770110284385	0.364590525828	-0.161059052880	0.763895064048	0.236952329601	-0.144156366431	0.632569976325	0.340606275548	-0.145805411989	0.699538401450	0.276837352118	-0.198890045887	0.963669592637	0.503084442345	0.073951329164	0.796325192531	0.466128687560	-0.158658080547	0.869945314666	0.825338149178	0.085593574103	0.823399187896	0.731426798953	0.135408626479	0.932632375237	0.680463825047	0.058668288996	0.849505282585	0.775238304299	-0.182643520495	0.834715764150	0.610769743253	-0.166868639254	0.748414035418	0.703374076663	-0.233220875951	0.840005792204	0.935422044052	-0.171485314894	0.811623779658	0.955648290735	0.066668158318	0.638141180343	0.990503262903	-0.065081171805	0.758753789517	1.450843914114	0.081358168744	0.775087701759	1.463272404343	-0.232399347536	0.709476783480	1.479156358531	-0.077191665677	0.827023135098	1.376528633186	-0.074168677533	0.879877557509	1.196429766721	-0.074035443455	0.624320039801	1.323292297385	-0.085097672185	0.753764526226	1.185465838318	-0.413275975127	0.903453119020	0.987157168050	-0.451264191859	0.670473762562	1.180975174098	0.256798296131	0.736624916614	0.981719865646	0.383972657041	0.637531063809	0.992339503712	-0.027557372950	0.641804801116	0.990371948979	-0.102870982947	
